<svg width="300" height="300" viewBox="0 0 300 300" fill="none" xmlns="http://www.w3.org/2000/svg">
<rect width="300" height="300" fill="white"/>
<path d="M83.916 193.957C83.916 198.947 82.959 203.63 81.0449 208.005C79.1992 212.38 76.6357 216.208 73.3545 219.489C70.0732 222.771 66.2451 225.368 61.8701 227.282C57.4951 229.128 52.8125 230.051 47.8223 230.051H43.6182C38.6279 230.051 33.9111 229.128 29.4678 227.282C25.0928 225.368 21.2646 222.771 17.9834 219.489C14.7021 216.208 12.1045 212.38 10.1904 208.005C8.34473 203.63 7.42188 198.947 7.42188 193.957V188.112L20.6494 185.959V193.957C20.6494 197.238 21.2646 200.314 22.4951 203.186C23.7256 205.988 25.4004 208.483 27.5195 210.671C29.707 212.79 32.2021 214.465 35.0049 215.695C37.876 216.926 40.9521 217.541 44.2334 217.541H47.207C50.4199 217.541 53.4619 216.926 56.333 215.695C59.2041 214.465 61.6992 212.79 63.8184 210.671C65.9375 208.483 67.6123 205.988 68.8428 203.186C70.0732 200.314 70.6885 197.238 70.6885 193.957V80.959H83.916V193.957ZM102.845 228V80.959H185.594V93.5713H116.072V148.225H172.366V160.837H116.072V215.388H185.594V228H102.845ZM283.17 191.906C283.17 196.896 282.213 201.579 280.299 205.954C278.453 210.329 275.89 214.157 272.608 217.438C269.327 220.72 265.465 223.317 261.021 225.231C256.646 227.077 251.964 228 246.974 228H200.421V80.959H246.974C251.964 80.959 256.646 81.916 261.021 83.8301C265.465 85.6758 269.327 88.2393 272.608 91.5205C275.89 94.8018 278.453 98.6641 280.299 103.107C282.213 107.482 283.17 112.165 283.17 117.155V191.906ZM269.942 117.155C269.942 113.874 269.327 110.832 268.097 108.029C266.866 105.158 265.157 102.663 262.97 100.544C260.851 98.3564 258.355 96.6475 255.484 95.417C252.682 94.1865 249.64 93.5713 246.358 93.5713H213.648V215.388H246.358C249.64 215.388 252.682 214.772 255.484 213.542C258.355 212.312 260.851 210.637 262.97 208.518C265.157 206.398 266.866 203.938 268.097 201.135C269.327 198.264 269.942 195.188 269.942 191.906V117.155Z" fill="black" fill-opacity="0.7"/>
</svg>